<mxfile host="app.diagrams.net" modified="2022-11-21T23:40:18.180Z" agent="5.0 (Windows NT 10.0; Win64; x64) AppleWebKit/537.36 (KHTML, like Gecko) Chrome/105.0.0.0 Safari/537.36 OPR/91.0.4516.106" etag="0-wyHhUgtu7wyqEAzvTu" version="20.5.3" type="github">
  <diagram id="IYc-EeCkCWbLkypRfb7z" name="Page-1">
    <mxGraphModel dx="399" dy="716" grid="1" gridSize="10" guides="1" tooltips="1" connect="1" arrows="1" fold="1" page="1" pageScale="1" pageWidth="2339" pageHeight="3300" math="0" shadow="0">
      <root>
        <mxCell id="0" />
        <mxCell id="1" parent="0" />
        <mxCell id="dCmdMeFQFRfdLefA6usg-4" value="" style="edgeStyle=orthogonalEdgeStyle;rounded=0;orthogonalLoop=1;jettySize=auto;html=1;" edge="1" parent="1" source="dCmdMeFQFRfdLefA6usg-2" target="dCmdMeFQFRfdLefA6usg-3">
          <mxGeometry relative="1" as="geometry" />
        </mxCell>
        <mxCell id="dCmdMeFQFRfdLefA6usg-2" value="E0" style="ellipse;whiteSpace=wrap;html=1;aspect=fixed;" vertex="1" parent="1">
          <mxGeometry x="120" y="400" width="40" height="40" as="geometry" />
        </mxCell>
        <mxCell id="dCmdMeFQFRfdLefA6usg-6" value="" style="edgeStyle=orthogonalEdgeStyle;rounded=0;orthogonalLoop=1;jettySize=auto;html=1;" edge="1" parent="1" source="dCmdMeFQFRfdLefA6usg-3" target="dCmdMeFQFRfdLefA6usg-5">
          <mxGeometry relative="1" as="geometry" />
        </mxCell>
        <mxCell id="dCmdMeFQFRfdLefA6usg-3" value="E1" style="ellipse;whiteSpace=wrap;html=1;aspect=fixed;" vertex="1" parent="1">
          <mxGeometry x="200" y="400" width="40" height="40" as="geometry" />
        </mxCell>
        <mxCell id="dCmdMeFQFRfdLefA6usg-8" value="" style="edgeStyle=orthogonalEdgeStyle;rounded=0;orthogonalLoop=1;jettySize=auto;html=1;" edge="1" parent="1" source="dCmdMeFQFRfdLefA6usg-5" target="dCmdMeFQFRfdLefA6usg-7">
          <mxGeometry relative="1" as="geometry" />
        </mxCell>
        <mxCell id="dCmdMeFQFRfdLefA6usg-5" value="E2" style="ellipse;whiteSpace=wrap;html=1;aspect=fixed;" vertex="1" parent="1">
          <mxGeometry x="280" y="400" width="40" height="40" as="geometry" />
        </mxCell>
        <mxCell id="dCmdMeFQFRfdLefA6usg-10" value="" style="edgeStyle=orthogonalEdgeStyle;rounded=0;orthogonalLoop=1;jettySize=auto;html=1;" edge="1" parent="1" source="dCmdMeFQFRfdLefA6usg-7" target="dCmdMeFQFRfdLefA6usg-9">
          <mxGeometry relative="1" as="geometry" />
        </mxCell>
        <mxCell id="dCmdMeFQFRfdLefA6usg-7" value="E3" style="ellipse;whiteSpace=wrap;html=1;aspect=fixed;" vertex="1" parent="1">
          <mxGeometry x="360" y="400" width="40" height="40" as="geometry" />
        </mxCell>
        <mxCell id="dCmdMeFQFRfdLefA6usg-12" value="" style="edgeStyle=orthogonalEdgeStyle;rounded=0;orthogonalLoop=1;jettySize=auto;html=1;" edge="1" parent="1" source="dCmdMeFQFRfdLefA6usg-9" target="dCmdMeFQFRfdLefA6usg-11">
          <mxGeometry relative="1" as="geometry" />
        </mxCell>
        <mxCell id="dCmdMeFQFRfdLefA6usg-9" value="E4" style="ellipse;whiteSpace=wrap;html=1;aspect=fixed;" vertex="1" parent="1">
          <mxGeometry x="440" y="400" width="40" height="40" as="geometry" />
        </mxCell>
        <mxCell id="dCmdMeFQFRfdLefA6usg-14" value="" style="edgeStyle=orthogonalEdgeStyle;rounded=0;orthogonalLoop=1;jettySize=auto;html=1;" edge="1" parent="1" source="dCmdMeFQFRfdLefA6usg-11" target="dCmdMeFQFRfdLefA6usg-13">
          <mxGeometry relative="1" as="geometry" />
        </mxCell>
        <mxCell id="dCmdMeFQFRfdLefA6usg-11" value="E5" style="ellipse;whiteSpace=wrap;html=1;aspect=fixed;" vertex="1" parent="1">
          <mxGeometry x="520" y="400" width="40" height="40" as="geometry" />
        </mxCell>
        <mxCell id="dCmdMeFQFRfdLefA6usg-16" value="" style="edgeStyle=orthogonalEdgeStyle;rounded=0;orthogonalLoop=1;jettySize=auto;html=1;" edge="1" parent="1" source="dCmdMeFQFRfdLefA6usg-13" target="dCmdMeFQFRfdLefA6usg-15">
          <mxGeometry relative="1" as="geometry" />
        </mxCell>
        <mxCell id="dCmdMeFQFRfdLefA6usg-13" value="E6" style="ellipse;whiteSpace=wrap;html=1;aspect=fixed;" vertex="1" parent="1">
          <mxGeometry x="600" y="400" width="40" height="40" as="geometry" />
        </mxCell>
        <mxCell id="dCmdMeFQFRfdLefA6usg-15" value="E7" style="ellipse;whiteSpace=wrap;html=1;aspect=fixed;" vertex="1" parent="1">
          <mxGeometry x="680" y="400" width="40" height="40" as="geometry" />
        </mxCell>
      </root>
    </mxGraphModel>
  </diagram>
</mxfile>
